<?xml version="1.0" encoding="iso-8859-1"?>
<!-- Generator: Adobe Illustrator 19.0.0, SVG Export Plug-In . SVG Version: 6.00 Build 0)  -->
<svg version="1.1" id="Layer_1" xmlns="http://www.w3.org/2000/svg" xmlns:xlink="http://www.w3.org/1999/xlink" x="0px" y="0px"
	viewBox="0 0 512 512" style="enable-background:new 0 0 512 512;" xml:space="preserve">
	<path style="fill:#e7f6fd;" d="M446.79,438.397H317.568c-24.752,0-24.778-37.464,0-37.464H446.79
	c10.345,0,18.732,8.387,18.732,18.732S457.135,438.397,446.79,438.397z" />
	<path style="fill:#cfedfb;" d="M194.432,438.397H65.21c-10.345,0-18.732-8.387-18.732-18.732s8.387-18.732,18.732-18.732h129.222
	C219.185,400.933,219.211,438.397,194.432,438.397z" />
	<path style="fill:#0ea5e9;" d="M256,0C154.074,0,71.151,82.923,71.151,184.849c0,141.505,164.348,314.122,171.345,321.401
	c7.367,7.664,19.642,7.666,27.01,0c6.997-7.279,171.345-179.896,171.345-321.401C440.849,82.923,357.926,0,256,0z M256,283.892
	c-54.612,0-99.041-44.431-99.041-99.042S201.388,85.807,256,85.807s99.043,44.431,99.043,99.043
	C355.041,239.461,310.612,283.892,256,283.892z" />
	<path style="fill:#0d95d2;" d="M256,0c-0.001,0-0.003,0-0.004,0v85.807c0.001,0,0.003,0,0.004,0
	c54.612,0,99.043,44.431,99.043,99.043S310.613,283.892,256,283.892c-0.001,0-0.003,0-0.004,0V512
	c4.911,0.001,9.824-1.914,13.509-5.748c6.997-7.279,171.345-179.896,171.345-321.401C440.849,82.923,357.926,0,256,0z" />
	<g></g>
	<g></g>
	<g></g>
	<g></g>
	<g></g>
	<g></g>
	<g></g>
	<g></g>
	<g></g>
	<g></g>
	<g></g>
	<g></g>
	<g></g>
	<g></g>
	<g></g>
</svg>