<?xml version="1.0" encoding="iso-8859-1"?>
<!-- Generator: Adobe Illustrator 19.0.0, SVG Export Plug-In . SVG Version: 6.00 Build 0)  -->
<svg version="1.1" id="Layer_1" xmlns="http://www.w3.org/2000/svg" xmlns:xlink="http://www.w3.org/1999/xlink" x="0px" y="0px"
	viewBox="0 0 512 512" style="enable-background:new 0 0 512 512;" xml:space="preserve">
	<path style="fill:#0ea5e9;" d="M493.57,340.638H358.281c-9.841,0-17.819-7.978-17.819-17.819v-57.813H171.505v57.813
	c0,9.841-7.978,17.819-17.819,17.819H18.397c-9.841,0-17.819-7.978-17.819-17.819c0-101.297-6.094-58.341,21.294-148.006
	c11.652-38.154,46.288-63.79,86.182-63.79h295.859c39.438,0,74.524,25.621,86.182,63.79c27.555,90.214,21.294,47.149,21.294,148.004
	C511.389,332.66,503.411,340.638,493.57,340.638z" />
	<path style="fill:#e7f6fd;" d="M493.57,400.976H18.397c-9.841,0-17.819-7.978-17.819-17.819c0-9.841,7.978-17.819,17.819-17.819
	H493.57c9.841,0,17.819,7.978,17.819,17.819C511.389,392.998,503.411,400.976,493.57,400.976z" />
	<path style="fill:#0d95d2;" d="M490.095,174.814c-11.657-38.168-46.744-63.79-86.182-63.79h-147.93v153.982h84.479v57.813
	c0,9.841,7.978,17.819,17.819,17.819H493.57c9.841,0,17.819-7.978,17.819-17.819C511.389,221.963,517.65,265.029,490.095,174.814z"
	 />
	<path style="fill:#cfedfb;" d="M493.57,365.338H255.983v35.638H493.57c9.841,0,17.819-7.978,17.819-17.819
	C511.389,373.316,503.411,365.338,493.57,365.338z" />
	<g></g>
	<g></g>
	<g></g>
	<g></g>
	<g></g>
	<g></g>
	<g></g>
	<g></g>
	<g></g>
	<g></g>
	<g></g>
	<g></g>
	<g></g>
	<g></g>
	<g></g>
</svg>