<?xml version="1.0" encoding="UTF-8" standalone="no"?>
<!-- Created with Inkscape (http://www.inkscape.org/) -->

<svg
   xmlns:dc="http://purl.org/dc/elements/1.1/"
   xmlns:cc="http://creativecommons.org/ns#"
   xmlns:rdf="http://www.w3.org/1999/02/22-rdf-syntax-ns#"
   xmlns:svg="http://www.w3.org/2000/svg"
   xmlns="http://www.w3.org/2000/svg"
   xmlns:sodipodi="http://sodipodi.sourceforge.net/DTD/sodipodi-0.dtd"
   xmlns:inkscape="http://www.inkscape.org/namespaces/inkscape"
   width="52.312092mm"
   height="14.280444mm"
   viewBox="0 0 185.35781 50.599999"
   id="svg3596"
   version="1.1"
   inkscape:version="0.91 r13725"
   sodipodi:docname="logo_dark01.svg">
   <defs
      id="defs3598" />
   <sodipodi:namedview
      id="base"
      pagecolor="#000000"
      bordercolor="#666666"
      borderopacity="1.0"
      inkscape:pageopacity="0"
      inkscape:pageshadow="2"
      inkscape:zoom="2.8"
      inkscape:cx="142.67624"
      inkscape:cy="-26.1676"
      inkscape:document-units="px"
      inkscape:current-layer="layer1"
      showgrid="false"
      fit-margin-top="0"
      fit-margin-left="0"
      fit-margin-right="0"
      fit-margin-bottom="0"
      inkscape:window-width="1920"
      inkscape:window-height="1017"
      inkscape:window-x="-8"
      inkscape:window-y="-8"
      inkscape:window-maximized="1" />
   <metadata
      id="metadata3601">
      <rdf:RDF>
         <cc:Work
            rdf:about="">
            <dc:format>image/svg+xml</dc:format>
            <dc:type
               rdf:resource="http://purl.org/dc/dcmitype/StillImage" />
            <dc:title></dc:title>
         </cc:Work>
      </rdf:RDF>
   </metadata>
   <g
      inkscape:label="Ebene 1"
      inkscape:groupmode="layer"
      id="layer1"
      transform="translate(-33.03543,-35.63363)">
      <g
         id="g3642"
         transform="translate(-991.42857,-825.71429)">
         <path
            inkscape:export-ydpi="600"
            inkscape:export-xdpi="600"
            inkscape:export-filename="D:\Documents\Firma\dynexo\Vorlagen\Visitenkarten\florian_reinholz_back.png"
            inkscape:connector-curvature="0"
            d="m 1045.9166,895.03592 0,-16.7217 -4.6766,0 c -3.1359,10e-5 -5.3609,0.6571 -6.6751,1.9713 -1.3142,1.3142 -1.9712,3.5029 -1.9712,6.5663 0,2.9727 0.6027,5.0799 1.8081,6.3216 1.2054,1.2417 3.2763,1.8625 6.2128,1.8625 z m 7.7219,6.2808 -14.8728,0 c -4.4954,0 -8.0028,-1.3232 -10.5224,-3.9697 -2.5196,-2.6464 -3.7793,-6.3352 -3.7793,-11.0662 0,-1.9395 0.2628,-3.7204 0.7884,-5.3428 0.5257,-1.6222 1.3233,-3.1041 2.3928,-4.4455 1.2688,-1.6132 2.7959,-2.7688 4.5814,-3.4666 1.7855,-0.6979 4.1374,-1.0468 7.0557,-1.0468 l 6.6343,0 0,-10.6312 7.7219,0 z"
            style="font-style:normal;font-variant:normal;font-weight:normal;font-stretch:normal;font-size:72px;line-height:125%;font-family:'HandelGothic BT';-inkscape-font-specification:'HandelGothic BT';letter-spacing:-3px;word-spacing:0px;fill:#ffffff;fill-opacity:1;stroke:none"
            id="path3042-2-2-3-4-6-1-7-48-4-8-4-4-6-1" />
         <path
            inkscape:export-ydpi="600"
            inkscape:export-xdpi="600"
            inkscape:export-filename="D:\Documents\Firma\dynexo\Vorlagen\Visitenkarten\florian_reinholz_back.png"
            inkscape:connector-curvature="0"
            d="m 1070.6773,894.84562 6.2265,0 0,-22.8665 7.749,0 0,28.5491 c 0,3.8791 -0.9064,6.7521 -2.719,8.6191 -1.8126,1.867 -4.586,2.8005 -8.32,2.8006 l -15.199,0 0,-5.9546 13.8667,0 c 1.4864,0 2.6283,-0.358 3.4259,-1.074 0.7976,-0.716 1.1963,-1.7537 1.1964,-3.1132 l 0,-0.4894 -6.8518,0 c -4.3867,0 -7.5135,-0.8655 -9.3805,-2.5966 -1.867,-1.7311 -2.8005,-4.6177 -2.8005,-8.6599 l 0,-18.0811 7.6675,0 0,17.4829 c 0,2.2114 0.3308,3.6616 0.9924,4.3504 0.6616,0.6888 2.0437,1.0332 4.1464,1.0332 z"
            style="font-style:normal;font-variant:normal;font-weight:normal;font-stretch:normal;font-size:72px;line-height:125%;font-family:'HandelGothic BT';-inkscape-font-specification:'HandelGothic BT';letter-spacing:-3px;word-spacing:0px;fill:#ffffff;fill-opacity:1;stroke:none"
            id="path3044-4-3-1-9-1-1-6-2-1-7-2-3-9-2" />
         <path
            inkscape:export-ydpi="600"
            inkscape:export-xdpi="600"
            inkscape:export-filename="D:\Documents\Firma\dynexo\Vorlagen\Visitenkarten\florian_reinholz_back.png"
            inkscape:connector-curvature="0"
            id="path3163-5-2-9-6-8-7-5-36-0-4-5-6-0-3"
            style="font-style:normal;font-variant:normal;font-weight:normal;font-stretch:normal;font-size:72px;line-height:125%;font-family:'HandelGothic BT';-inkscape-font-specification:'HandelGothic BT';letter-spacing:-2px;word-spacing:0px;fill:#ffffff;fill-opacity:1;stroke:none"
            d="m 1137.4489,901.31892 c -4.8579,0 -8.533,-1.2371 -11.0254,-3.7114 -2.4924,-2.4742 -3.7386,-6.1222 -3.7386,-10.9438 0,-4.8216 1.2507,-8.4741 3.7522,-10.9574 2.5014,-2.4833 6.172,-3.725 11.0118,-3.725 l 11.3109,0 0,6.1177 -10.2505,0 c -2.8096,0 -4.6993,0.3988 -5.6691,1.1963 -0.9697,0.7976 -1.4909,2.2386 -1.5634,4.3231 l 17.483,0 0,6.1177 -17.483,0 c 0.072,2.1027 0.5574,3.5392 1.4547,4.3096 0.8972,0.7704 2.805,1.1555 5.7234,1.1555 l 10.3049,0 0,6.1177 z" />
         <path
            inkscape:export-ydpi="600"
            inkscape:export-xdpi="600"
            inkscape:export-filename="D:\Documents\Firma\dynexo\Vorlagen\Visitenkarten\florian_reinholz_back.png"
            inkscape:connector-curvature="0"
            id="path3165-2-2-8-3-6-3-1-3-4-8-3-3-8-3"
            style="font-style:normal;font-weight:normal;font-size:40px;line-height:125%;font-family:Sans;letter-spacing:-3px;word-spacing:0px;fill:#ffffff;fill-opacity:1;stroke:none"
            d="m 1159.8018,886.66372 -10.8487,-14.6824 8.9726,0 6.2809,8.8366 6.4711,-8.8366 8.891,0 -10.8487,14.8727 10.6856,14.4649 -8.9998,0 -6.1992,-8.5103 -6.2265,8.5103 -9.027,0 z" />
         <path
            inkscape:export-ydpi="600"
            inkscape:export-xdpi="600"
            inkscape:export-filename="D:\Documents\Firma\dynexo\Vorlagen\Visitenkarten\florian_reinholz_back.png"
            inkscape:connector-curvature="0"
            id="path3167-7-1-6-7-21-0-3-0-8-1-2-9-9-4"
            style="font-style:normal;font-weight:normal;font-size:40px;line-height:125%;font-family:Sans;letter-spacing:-3px;word-spacing:0px;fill:#ffffff;fill-opacity:1;stroke:none"
            d="m 1186.8193,886.66372 c 0,2.7915 0.6525,4.9666 1.9577,6.5255 1.305,1.5589 3.1267,2.3383 5.4651,2.3383 2.3201,0 4.1418,-0.7794 5.4651,-2.3383 1.3232,-1.5589 1.9848,-3.734 1.9848,-6.5255 0,-2.7915 -0.6571,-4.9621 -1.9712,-6.5119 -1.3142,-1.5498 -3.1404,-2.3247 -5.4787,-2.3247 -2.3202,0 -4.1374,0.7794 -5.4516,2.3383 -1.3141,1.5588 -1.9712,3.725 -1.9712,6.4983 z m 23.0025,0 c -10e-5,4.6041 -1.4003,8.2793 -4.2008,11.0254 -2.8006,2.7462 -6.5754,4.1192 -11.3245,4.1192 -4.7492,0 -8.5376,-1.3776 -11.3653,-4.1328 -2.8278,-2.7552 -4.2416,-6.4258 -4.2416,-11.0118 0,-4.6041 1.4138,-8.2883 4.2416,-11.0526 2.8277,-2.7643 6.6161,-4.1464 11.3653,-4.1464 4.7128,0 8.4786,1.3821 11.2973,4.1464 2.8186,2.7643 4.2279,6.4485 4.228,11.0526 z" />
         <rect
            inkscape:export-ydpi="600"
            inkscape:export-xdpi="600"
            inkscape:export-filename="D:\Documents\Firma\dynexo\Vorlagen\Visitenkarten\florian_reinholz_back.png"
            y="871.9812"
            x="1088.9242"
            height="29.340675"
            width="9.8607874"
            id="rect3240-68-5-8-4-0-9-3-5-4-6-2-3-1"
            style="fill:#27a9e1;fill-opacity:1" />
         <path
            inkscape:export-ydpi="600"
            inkscape:export-xdpi="600"
            inkscape:export-filename="D:\Documents\Firma\dynexo\Vorlagen\Visitenkarten\florian_reinholz_back.png"
            id="path4243-5-0-8-6-4-9-5-9-3-8-1-6-1"
            d="m 1114.9297,871.99092 c 2.861,1.6148 4.8095,4.6004 4.8095,8.0481 l 4.012,0 c 0.2945,-0.803 0.6197,-1.5615 1.0393,-2.2476 0.469,-0.767 1.0181,-1.4577 1.6434,-2.0785 0.6254,-0.6208 1.3312,-1.1779 2.1027,-1.6435 0.7715,-0.4656 1.6201,-0.8497 2.5377,-1.1601 0.9177,-0.3104 1.909,-0.5457 2.9728,-0.7009 1.0637,-0.1552 2.1978,-0.2175 3.4077,-0.2175 l -18.9723,0 -3.5528,0 z"
            style="fill:#27a9e1;fill-opacity:1"
            inkscape:connector-curvature="0" />
         <path
            inkscape:export-ydpi="600"
            inkscape:export-xdpi="600"
            inkscape:export-filename="D:\Documents\Firma\dynexo\Vorlagen\Visitenkarten\florian_reinholz_back.png"
            id="rect3240-6-7-2-2-2-8-5-2-2-5-2-9-0-3"
            d="m 1100.7427,871.99092 0,8.0481 7.879,0 0,21.2926 9.8608,0 0,-21.2926 c 0,-4.4479 -3.7287,-8.0481 -8.3624,-8.0481 l -1.4984,0 -7.879,0 z"
            style="fill:#27a9e1;fill-opacity:1"
            inkscape:connector-curvature="0" />
      </g>
   </g>
</svg>