<svg width="90" height="67" viewBox="0 0 90 67" fill="none" xmlns="http://www.w3.org/2000/svg">
<g opacity="0.99">
<g filter="url(#filter0_bd_2_3)">
<rect x="9" y="15" width="60" height="40" rx="7" fill="url(#paint0_linear_2_3)" fill-opacity="0.2" shape-rendering="crispEdges"/>
</g>
<g filter="url(#filter1_d_2_3)">
<circle cx="19" cy="48" r="11" fill="#2EE6FF"/>
</g>
<g filter="url(#filter2_d_2_3)">
<circle cx="65.5" cy="19.5" r="19.5" fill="#30B5FF"/>
</g>
<g filter="url(#filter3_bd_2_3)">
<rect x="12" y="12" width="60" height="40" rx="7" fill="url(#paint1_linear_2_3)" fill-opacity="0.2" shape-rendering="crispEdges"/>
</g>
<g filter="url(#filter4_bd_2_3)">
<rect x="16.25" y="15.25" width="52.5" height="34.5" rx="6.75" stroke="#2A3EA9" stroke-width="0.5" shape-rendering="crispEdges"/>
</g>
<path d="M30.34 37H25.924V28.912H26.896V36.124H30.34V37ZM34.9188 29.668C34.1028 29.668 33.4628 29.96 32.9988 30.544C32.5428 31.12 32.3148 31.912 32.3148 32.92C32.3148 33.92 32.5508 34.712 33.0228 35.296C33.5028 35.88 34.1468 36.172 34.9548 36.172C35.7628 36.172 36.3908 35.884 36.8388 35.308C37.2948 34.732 37.5228 33.936 37.5228 32.92C37.5228 31.904 37.2948 31.108 36.8388 30.532C36.3828 29.956 35.7428 29.668 34.9188 29.668ZM34.9308 28.756C36.0588 28.756 36.9428 29.132 37.5828 29.884C38.2308 30.628 38.5548 31.64 38.5548 32.92C38.5548 34.192 38.2268 35.208 37.5708 35.968C36.9228 36.72 36.0468 37.096 34.9428 37.096C33.8388 37.096 32.9548 36.716 32.2908 35.956C31.6268 35.196 31.2948 34.184 31.2948 32.92C31.2948 31.648 31.6188 30.636 32.2668 29.884C32.9228 29.132 33.8108 28.756 34.9308 28.756ZM43.8491 37.096C42.6011 37.096 41.5971 36.728 40.8371 35.992C40.0771 35.248 39.6971 34.248 39.6971 32.992C39.6971 31.736 40.0731 30.72 40.8251 29.944C41.5851 29.16 42.5411 28.768 43.6931 28.768C44.6451 28.768 45.4331 28.952 46.0571 29.32V30.364C45.4011 29.932 44.6291 29.716 43.7411 29.716C42.8611 29.716 42.1371 30.012 41.5691 30.604C41.0011 31.188 40.7171 31.976 40.7171 32.968C40.7171 33.952 40.9971 34.732 41.5571 35.308C42.1171 35.876 42.8891 36.16 43.8731 36.16C44.4171 36.16 44.9211 36.052 45.3851 35.836V33.316H43.6091V32.464H46.3571V36.328H46.3451L46.3571 36.364C45.7091 36.852 44.8731 37.096 43.8491 37.096ZM51.3602 29.668C50.5442 29.668 49.9042 29.96 49.4402 30.544C48.9842 31.12 48.7562 31.912 48.7562 32.92C48.7562 33.92 48.9922 34.712 49.4642 35.296C49.9442 35.88 50.5882 36.172 51.3962 36.172C52.2042 36.172 52.8322 35.884 53.2802 35.308C53.7362 34.732 53.9642 33.936 53.9642 32.92C53.9642 31.904 53.7362 31.108 53.2802 30.532C52.8242 29.956 52.1842 29.668 51.3602 29.668ZM51.3722 28.756C52.5002 28.756 53.3842 29.132 54.0242 29.884C54.6722 30.628 54.9962 31.64 54.9962 32.92C54.9962 34.192 54.6682 35.208 54.0122 35.968C53.3642 36.72 52.4882 37.096 51.3842 37.096C50.2802 37.096 49.3962 36.716 48.7322 35.956C48.0682 35.196 47.7362 34.184 47.7362 32.92C47.7362 31.648 48.0602 30.636 48.7082 29.884C49.3642 29.132 50.2522 28.756 51.3722 28.756Z" fill="#2CDCF4"/>
</g>
<defs>
<filter id="filter0_bd_2_3" x="5" y="11" width="68" height="52" filterUnits="userSpaceOnUse" color-interpolation-filters="sRGB">
<feFlood flood-opacity="0" result="BackgroundImageFix"/>
<feGaussianBlur in="BackgroundImageFix" stdDeviation="2"/>
<feComposite in2="SourceAlpha" operator="in" result="effect1_backgroundBlur_2_3"/>
<feColorMatrix in="SourceAlpha" type="matrix" values="0 0 0 0 0 0 0 0 0 0 0 0 0 0 0 0 0 0 127 0" result="hardAlpha"/>
<feOffset dy="4"/>
<feGaussianBlur stdDeviation="2"/>
<feComposite in2="hardAlpha" operator="out"/>
<feColorMatrix type="matrix" values="0 0 0 0 0 0 0 0 0 0 0 0 0 0 0 0 0 0 0.25 0"/>
<feBlend mode="normal" in2="effect1_backgroundBlur_2_3" result="effect2_dropShadow_2_3"/>
<feBlend mode="normal" in="SourceGraphic" in2="effect2_dropShadow_2_3" result="shape"/>
</filter>
<filter id="filter1_d_2_3" x="4" y="37" width="30" height="30" filterUnits="userSpaceOnUse" color-interpolation-filters="sRGB">
<feFlood flood-opacity="0" result="BackgroundImageFix"/>
<feColorMatrix in="SourceAlpha" type="matrix" values="0 0 0 0 0 0 0 0 0 0 0 0 0 0 0 0 0 0 127 0" result="hardAlpha"/>
<feOffset dy="4"/>
<feGaussianBlur stdDeviation="2"/>
<feComposite in2="hardAlpha" operator="out"/>
<feColorMatrix type="matrix" values="0 0 0 0 0 0 0 0 0 0 0 0 0 0 0 0 0 0 0.25 0"/>
<feBlend mode="normal" in2="BackgroundImageFix" result="effect1_dropShadow_2_3"/>
<feBlend mode="normal" in="SourceGraphic" in2="effect1_dropShadow_2_3" result="shape"/>
</filter>
<filter id="filter2_d_2_3" x="42" y="0" width="47" height="47" filterUnits="userSpaceOnUse" color-interpolation-filters="sRGB">
<feFlood flood-opacity="0" result="BackgroundImageFix"/>
<feColorMatrix in="SourceAlpha" type="matrix" values="0 0 0 0 0 0 0 0 0 0 0 0 0 0 0 0 0 0 127 0" result="hardAlpha"/>
<feOffset dy="4"/>
<feGaussianBlur stdDeviation="2"/>
<feComposite in2="hardAlpha" operator="out"/>
<feColorMatrix type="matrix" values="0 0 0 0 0 0 0 0 0 0 0 0 0 0 0 0 0 0 0.25 0"/>
<feBlend mode="normal" in2="BackgroundImageFix" result="effect1_dropShadow_2_3"/>
<feBlend mode="normal" in="SourceGraphic" in2="effect1_dropShadow_2_3" result="shape"/>
</filter>
<filter id="filter3_bd_2_3" x="8" y="8" width="68" height="52" filterUnits="userSpaceOnUse" color-interpolation-filters="sRGB">
<feFlood flood-opacity="0" result="BackgroundImageFix"/>
<feGaussianBlur in="BackgroundImageFix" stdDeviation="2"/>
<feComposite in2="SourceAlpha" operator="in" result="effect1_backgroundBlur_2_3"/>
<feColorMatrix in="SourceAlpha" type="matrix" values="0 0 0 0 0 0 0 0 0 0 0 0 0 0 0 0 0 0 127 0" result="hardAlpha"/>
<feOffset dy="4"/>
<feGaussianBlur stdDeviation="2"/>
<feComposite in2="hardAlpha" operator="out"/>
<feColorMatrix type="matrix" values="0 0 0 0 0 0 0 0 0 0 0 0 0 0 0 0 0 0 0.25 0"/>
<feBlend mode="normal" in2="effect1_backgroundBlur_2_3" result="effect2_dropShadow_2_3"/>
<feBlend mode="normal" in="SourceGraphic" in2="effect2_dropShadow_2_3" result="shape"/>
</filter>
<filter id="filter4_bd_2_3" x="12" y="11" width="61" height="47" filterUnits="userSpaceOnUse" color-interpolation-filters="sRGB">
<feFlood flood-opacity="0" result="BackgroundImageFix"/>
<feGaussianBlur in="BackgroundImageFix" stdDeviation="2"/>
<feComposite in2="SourceAlpha" operator="in" result="effect1_backgroundBlur_2_3"/>
<feColorMatrix in="SourceAlpha" type="matrix" values="0 0 0 0 0 0 0 0 0 0 0 0 0 0 0 0 0 0 127 0" result="hardAlpha"/>
<feOffset dy="4"/>
<feGaussianBlur stdDeviation="2"/>
<feComposite in2="hardAlpha" operator="out"/>
<feColorMatrix type="matrix" values="0 0 0 0 0 0 0 0 0 0 0 0 0 0 0 0 0 0 0.25 0"/>
<feBlend mode="normal" in2="effect1_backgroundBlur_2_3" result="effect2_dropShadow_2_3"/>
<feBlend mode="normal" in="SourceGraphic" in2="effect2_dropShadow_2_3" result="shape"/>
</filter>
<linearGradient id="paint0_linear_2_3" x1="9" y1="16.5" x2="79.5" y2="64.5" gradientUnits="userSpaceOnUse">
<stop stop-color="white" stop-opacity="0.7"/>
<stop offset="1" stop-color="white" stop-opacity="0.35"/>
</linearGradient>
<linearGradient id="paint1_linear_2_3" x1="12" y1="13.5" x2="82.5" y2="61.5" gradientUnits="userSpaceOnUse">
<stop stop-color="white" stop-opacity="0.7"/>
<stop offset="1" stop-color="white" stop-opacity="0.35"/>
</linearGradient>
</defs>
</svg>
